<?xml version="1.0" encoding="iso-8859-1"?>
<!-- Generator: Adobe Illustrator 19.0.0, SVG Export Plug-In . SVG Version: 6.00 Build 0)  -->
<svg version="1.1" id="Capa_1" xmlns="http://www.w3.org/2000/svg" xmlns:xlink="http://www.w3.org/1999/xlink" x="0px" y="0px"
	 viewBox="0 0 512.001 512.001" style="enable-background:new 0 0 512.001 512.001;" xml:space="preserve">
<path style="fill:#F0EFEB;" d="M512,256c0,48.515-13.5,93.895-36.948,132.556c-33.844,55.808-88.409,97.646-153.015,114.845
	c-21.065,5.611-43.207,8.6-66.038,8.6C114.615,512,0,397.385,0,256S114.615,0,256,0c33.144,0,64.825,6.301,93.895,17.763
	c53.258,21.013,97.782,59.361,126.61,108.095C499.054,163.997,512,208.488,512,256z"/>
<path style="fill:#0097D4;" d="M326.175,265.947c0,22.225,18.004,40.229,40.229,40.229c0.261,0,0.543,0,0.805-0.031v0.125
	c1.724-0.084,3.459-0.136,5.204-0.136c50.249,0,92.275,35.276,102.64,82.422c-33.844,55.808-88.409,97.646-153.015,114.845
	c-33.029-18.223-55.317-53.687-54.721-93.738c0.313-21.191,6.896-40.866,17.983-57.24l-0.094-0.052
	c3.971-6.217,6.249-13.605,6.249-21.525c0-22.225-18.004-40.249-40.239-40.249c-15.047,0-28.15,8.265-35.035,20.49
	c-17.074,34.973-52.966,59.079-94.511,59.079c-58.89,0-106.475-48.441-105.075-107.656c1.358-57.438,49.497-103.549,106.945-102.546
	c39.873,0.7,74.303,23.604,91.512,56.874c3.354,6.478,8.286,12.089,14.66,15.632c5.778,3.218,12.434,5.047,19.508,5.047
	c22.235,0,40.249-18.014,40.249-40.239c0-0.052-0.01-0.104-0.01-0.157c-0.021-6.844-2.32-13.469-6.06-19.216
	c-10.731-16.468-16.98-36.133-16.98-57.271c0-50.636,35.809-92.902,83.477-102.87c7.774-1.63,15.862-2.403,24.168-2.205
	C429.82,16.876,475.294,62.35,476.6,118.105c0.063,2.602,0.031,5.183-0.094,7.753c-2.717,55.62-48.682,99.892-104.981,99.892
	c-1.452,0-2.884-0.052-4.315-0.115v0.094c-0.261-0.021-0.543-0.021-0.805-0.021C344.179,225.708,326.175,243.722,326.175,265.947z"
	/>
<g>
</g>
<g>
</g>
<g>
</g>
<g>
</g>
<g>
</g>
<g>
</g>
<g>
</g>
<g>
</g>
<g>
</g>
<g>
</g>
<g>
</g>
<g>
</g>
<g>
</g>
<g>
</g>
<g>
</g>
</svg>
